<svg xmlns="http://www.w3.org/2000/svg" viewBox="0 0 1920 763"><style type="text/css">  
	.st0{fill:#F3F3F3;}
</style><path class="st0" d="M348.3 567.7l160.8-65 13 32.2 32.2-13 52 128.7 -64.3 26 -52-128.7 -64.3 26 52 128.7 -64.3 26L348.3 567.7z"/><path class="st0" d="M618.7 495.8l-13-32.2 128.7-52 13 32.2 32.2-13 39 96.5 -32.2 13 13 32.2L670.7 624.4l-13-32.2 -32.2 13 -39-96.5L618.7 495.8zM689.9 579.3l64.3-26 -39-96.5 -64.3 26L689.9 579.3z"/><path class="st0" d="M843.8 404.7l-32.2 13 -13-32.2 32.2-13 -26-64.3 64.3-26 26 64.3 64.3-26 13 32.2 -64.3 26 39 96.5 64.3-26 13 32.2 -96.5 39 -13-32.2 -32.2 13L843.8 404.7z"/><path class="st0" d="M1056.7 468.3l225.2-91.1 13 32.2 -225.2 91.1L1056.7 468.3z"/><path class="st0" d="M1313.3 177.4l39 96.5 32.2-13 -13-32.2 32.2-13 13 32.2 32.2-13 -39-96.5 64.3-26 52 128.7 -32.2 13 13 32.2 -64.3 26 -13-32.2 -32.2 13 13 32.2 -64.3 26 -13-32.2 -32.2 13 -52-128.7L1313.3 177.4z"/><path class="st0" d="M1719.2 163l-96.5 39 26 64.3 -64.3 26 -78-193 160.8-65 13 32.2 32.2-13 26 64.3 -32.2 13L1719.2 163zM1609.7 169.9l64.3-26L1648 79.5l-64.3 26L1609.7 169.9z"/></svg>
 
